<svg xmlns="http://www.w3.org/2000/svg" xmlns:xlink="http://www.w3.org/1999/xlink" viewBox="0 0 1923.45 1080.89"><defs><style>.cls-1{fill:#d5b894;}.cls-2{fill:#fff;}.cls-3{fill:#353b48;}.cls-4{fill:#f3f3f3;}.cls-5{fill:#fbc531;}.cls-6{fill:#f04a2c;}.cls-7{fill:#65c9d6;}.cls-8{fill:#989898;}.cls-9{fill:#b4b4b4;}.cls-10{fill:#4e4e4e;}.cls-11{fill:#795321;opacity:0.2;}.cls-12{fill:#efe9e0;}.cls-13{clip-path:url(#clip-path);}.cls-14{fill:#b79c60;}.cls-15{fill:#7d7972;}.cls-16{clip-path:url(#clip-path-2);}.cls-17{fill:#f0e1b3;}.cls-18,.cls-19,.cls-21{fill:none;stroke-miterlimit:10;}.cls-18{stroke:#f0e1b3;stroke-width:2.11px;}.cls-19{stroke:#fbc531;}.cls-19,.cls-21{stroke-linecap:round;stroke-width:10.56px;}.cls-20{clip-path:url(#clip-path-3);}.cls-21{stroke:#353b48;}</style><clipPath id="clip-path"><ellipse id="_Masque_" data-name="&lt;Masque&gt;" class="cls-1" cx="573.1" cy="870.37" rx="71.46" ry="22.6"/></clipPath><clipPath id="clip-path-2"><path id="_Masque_2" data-name="&lt;Masque&gt;" class="cls-2" d="M306.26,1075.33,37.72,1036.44c-25.79-31.69,0-51.85,0-51.85l268.53,31.69L452.41,901s-15.17,32.65,0,52.81Z"/></clipPath><clipPath id="clip-path-3"><path id="_Masque_3" data-name="&lt;Masque&gt;" class="cls-2" d="M432.18,932.25l-268,80.66-144.63-49s-31.35-28.81-1-60.49L163.14,955.3l269-75.86S418.52,909.21,432.18,932.25Z"/></clipPath></defs><title>Fichier 1</title><g id="Calque_2" data-name="Calque 2"><g id="Calque_1-2" data-name="Calque 1"><path class="cls-3" d="M1214,885.29h-11.37s-66.75-16.87-66.75-193.83c0-52.13-294.78-52.09-294.78,3.88,0,170.38-68.49,189.95-68.49,189.95h-9.22c-8.23,0-14.85,6.1-14.85,13.91v7.07c0,7.81,6.63,14,14.85,14H1214c8.23,0,16.38-6.19,16.38-14v-7.07C1230.43,891.4,1222.27,885.29,1214,885.29Z"/><path class="cls-3" d="M1511.61,0H464c-20.19,0-38.54,10.06-38.54,29.22V723.1c0,19.16,18.35,43.79,38.54,43.79H1511.61c20.19,0,30.6-24.63,30.6-43.79V29.22C1542.21,10.06,1531.79,0,1511.61,0Z"/><rect class="cls-4" x="479.33" y="56.51" width="1009.03" height="548.94"/><path class="cls-5" d="M1033.55,688.14c0,24-20.49,43.43-45.75,43.43h0c-25.25,0-45.74-19.44-45.74-43.43h0c0-24,20.48-43.43,45.74-43.43h0c25.26,0,45.75,19.44,45.75,43.43Z"/><path class="cls-6" d="M871.88,133.79c0,7.85-6.82,14.21-16.55,14.21H667c-9.73,0-19-6.36-19-14.21V105.7c0-7.85,9.31-14.21,19-14.21H855.33c9.73,0,16.55,6.36,16.55,14.21Z"/><path class="cls-7" d="M1319.71,314.08c0,7.85-7.51,14.21-17.24,14.21H667c-9.73,0-19-6.36-19-14.21V181c0-7.85,9.31-14.21,19-14.21h635.47c9.73,0,17.24,6.36,17.24,14.21Z"/><path class="cls-8" d="M854.88,427.09c0,7.85-6.49,14.21-16.23,14.21H667c-9.73,0-19-6.36-19-14.21V355.95c0-7.85,9.31-14.21,19-14.21H838.65c9.73,0,16.23,6.36,16.23,14.21Z"/><path class="cls-8" d="M1081.63,427.09c0,7.85-6.34,14.21-16.07,14.21H893.91c-9.73,0-19.19-6.36-19.19-14.21V355.95c0-7.85,9.46-14.21,19.19-14.21h171.65c9.73,0,16.07,6.36,16.07,14.21Z"/><path class="cls-8" d="M1319.71,427.09c0,7.85-7.51,14.21-17.24,14.21H1130.83c-9.73,0-18-6.36-18-14.21V355.95c0-7.85,8.3-14.21,18-14.21h171.65c9.73,0,17.24,6.36,17.24,14.21Z"/><path class="cls-9" d="M1081.63,468.18c0,3.27-1.9,5.42-5.84,5.42H884.48c-3.94,0-9.76-2.15-9.76-5.42v-2.37c0-3.27,5.82-5.67,9.76-5.67h191.31c3.94,0,5.84,2.4,5.84,5.67Z"/><path class="cls-9" d="M1081.63,491.86c0,3.27-1.9,6-5.84,6H884.48c-3.94,0-9.76-2.68-9.76-6v-2.37c0-3.27,5.82-5.13,9.76-5.13h191.31c3.94,0,5.84,1.86,5.84,5.13Z"/><path class="cls-9" d="M1081.63,515.54c0,3.27-1.9,6.49-5.84,6.49H884.48c-3.94,0-9.76-3.22-9.76-6.49v-2.37c0-3.27,5.82-4.6,9.76-4.6h191.31c3.94,0,5.84,1.33,5.84,4.6Z"/><path class="cls-9" d="M1081.63,539.22c0,3.27-1.9,7-5.84,7H884.48c-3.94,0-9.76-3.75-9.76-7v-2.37c0-3.27,5.82-6.75,9.76-6.75h191.31c3.94,0,5.84,3.48,5.84,6.75Z"/><path class="cls-9" d="M988.09,562.91c0,3.27-2.34,4.87-6.28,4.87H884.48c-3.94,0-9.76-1.6-9.76-4.87v-2.37c0-3.27,5.82-6.22,9.76-6.22h97.33a6.06,6.06,0,0,1,6.28,6.22Z"/><path class="cls-9" d="M1314,468.18c0,3.27.63,5.42-3.31,5.42h-191.3c-3.94,0-6.62-2.15-6.62-5.42v-2.37c0-3.27,2.68-5.67,6.62-5.67h191.3c3.94,0,3.31,2.4,3.31,5.67Z"/><path class="cls-9" d="M1314,491.86c0,3.27.63,6-3.31,6h-191.3c-3.94,0-6.62-2.68-6.62-6v-2.37c0-3.27,2.68-5.13,6.62-5.13h191.3c3.94,0,3.31,1.86,3.31,5.13Z"/><path class="cls-9" d="M1314,515.54c0,3.27.63,6.49-3.31,6.49h-191.3a6.57,6.57,0,0,1-6.62-6.49v-2.37c0-3.27,2.68-4.6,6.62-4.6h191.3c3.94,0,3.31,1.33,3.31,4.6Z"/><path class="cls-9" d="M1314,539.22c0,3.27.63,7-3.31,7h-191.3c-3.94,0-6.62-3.75-6.62-7v-2.37a6.8,6.8,0,0,1,6.62-6.75h191.3c3.94,0,3.31,3.48,3.31,6.75Z"/><path class="cls-9" d="M1220.51,562.91c0,3.27.19,4.87-3.75,4.87h-97.33c-3.94,0-6.62-1.6-6.62-4.87v-2.37a6.36,6.36,0,0,1,6.62-6.22h97.33c3.94,0,3.75,2.95,3.75,6.22Z"/><path class="cls-9" d="M852,468.18c0,3.27-1.39,5.42-5.33,5.42H655.41c-3.94,0-7.44-2.15-7.44-5.42v-2.37c0-3.27,3.5-5.67,7.44-5.67h191.3c3.94,0,5.33,2.4,5.33,5.67Z"/><path class="cls-9" d="M852,491.86c0,3.27-1.39,6-5.33,6H655.41c-3.94,0-7.44-2.68-7.44-6v-2.37c0-3.27,3.5-5.13,7.44-5.13h191.3c3.94,0,5.33,1.86,5.33,5.13Z"/><path class="cls-9" d="M852,515.54c0,3.27-1.39,6.49-5.33,6.49H655.41c-3.94,0-7.44-3.22-7.44-6.49v-2.37c0-3.27,3.5-4.6,7.44-4.6h191.3c3.94,0,5.33,1.33,5.33,4.6Z"/><path class="cls-9" d="M852,539.22c0,3.27-1.39,7-5.33,7H655.41c-3.94,0-7.44-3.75-7.44-7v-2.37c0-3.27,3.5-6.75,7.44-6.75h191.3c3.94,0,5.33,3.48,5.33,6.75Z"/><path class="cls-9" d="M758.51,562.91c0,3.27-1.83,4.87-5.77,4.87H655.41c-3.94,0-7.44-1.6-7.44-4.87v-2.37c0-3.27,3.5-6.22,7.44-6.22h97.33c3.94,0,5.77,2.95,5.77,6.22Z"/><path class="cls-3" d="M1850.5,1051.64H1294V712.8c0-7,7.33-11.08,14.75-11.08h530.76c7.42,0,11,4,11,11.08Z"/><rect class="cls-4" x="1316.07" y="726.22" width="516" height="299.18"/><path class="cls-3" d="M1922.37,1065.64v-14.78c0-3.52-1.93-4.47-5.64-4.47H1234.8c-3.71,0-7.19.95-7.19,4.47v14.78h.47s16.8,12.25,26.87,12.25h641.62c10.08,0,26.87-12.25,26.87-12.25Z"/><path class="cls-5" d="M1636.23,1056.89H1515.3c-10.08,0-10.08-10.5-10.08-10.5h141.09S1646.31,1056.89,1636.23,1056.89Z"/><path class="cls-6" d="M1522.47,769c0,4.26-3,8-7.53,8h-86.77c-4.49,0-8.89-3.72-8.89-8V753.52c0-4.26,4.4-8.06,8.89-8.06h86.77c4.5,0,7.53,3.79,7.53,8.06Z"/><path class="cls-7" d="M1728.87,867.21a7.94,7.94,0,0,1-8.13,7.72H1427.4a7.94,7.94,0,0,1-8.13-7.72v-72a7.94,7.94,0,0,1,8.13-7.72h293.33a7.94,7.94,0,0,1,8.13,7.72Z"/><path class="cls-8" d="M1515.1,928.58c0,4.26-3.8,7.58-8.3,7.58h-78.64c-4.49,0-8.89-3.32-8.89-7.58V890c0-4.26,4.4-8,8.89-8h78.64a8.34,8.34,0,0,1,8.3,8Z"/><path class="cls-8" d="M1620.14,928.44a7.94,7.94,0,0,1-8.14,7.72h-77.71a7.94,7.94,0,0,1-8.14-7.72V889.65a7.94,7.94,0,0,1,8.14-7.72H1612a7.94,7.94,0,0,1,8.14,7.72Z"/><path class="cls-8" d="M1727,928.44a7.94,7.94,0,0,1-8.13,7.72h-77.72a7.94,7.94,0,0,1-8.13-7.72V889.65a7.94,7.94,0,0,1,8.13-7.72h77.72a7.94,7.94,0,0,1,8.13,7.72Z"/><path class="cls-9" d="M1620.14,951.11c0,1.78-.92,2.55-2.74,2.55h-88.32c-1.82,0-2.92-.78-2.92-2.55v-1.29a2.9,2.9,0,0,1,2.92-3.16h88.32c1.82,0,2.74,1.38,2.74,3.16Z"/><path class="cls-9" d="M1620.14,964c0,1.78-.92,3.68-2.74,3.68h-88.32c-1.82,0-2.92-1.9-2.92-3.68v-1.29c0-1.78,1.1-3.78,2.92-3.78h88.32c1.82,0,2.74,2,2.74,3.78Z"/><path class="cls-9" d="M1620.14,976.85c0,1.78-.92,4.8-2.74,4.8h-88.32c-1.82,0-2.92-3-2.92-4.8v-1.29c0-1.78,1.1-4.41,2.92-4.41h88.32c1.82,0,2.74,2.63,2.74,4.41Z"/><path class="cls-9" d="M1620.14,989.73c0,1.78-.92,4.18-2.74,4.18h-88.32c-1.82,0-2.92-2.4-2.92-4.18v-1.29a3,3,0,0,1,2.92-3.28h88.32c1.82,0,2.74,1.51,2.74,3.28Z"/><path class="cls-9" d="M1575.91,1002.6c0,1.78-.08,3.55-1.9,3.55h-44.93c-1.82,0-2.92-1.78-2.92-3.55v-1.29c0-1.78,1.1-3.91,2.92-3.91H1574c1.82,0,1.9,2.13,1.9,3.91Z"/><path class="cls-9" d="M1728.87,951.11c0,1.78-1.18,2.55-3,2.55h-88.32c-1.82,0-4.5-.78-4.5-2.55v-1.29c0-1.78,2.69-3.16,4.5-3.16h88.32a3,3,0,0,1,3,3.16Z"/><path class="cls-9" d="M1728.87,964c0,1.78-1.18,3.68-3,3.68h-88.32c-1.82,0-4.5-1.9-4.5-3.68v-1.29c0-1.78,2.69-3.78,4.5-3.78h88.32c1.82,0,3,2,3,3.78Z"/><path class="cls-9" d="M1728.87,976.85c0,1.78-1.18,4.8-3,4.8h-88.32c-1.82,0-4.5-3-4.5-4.8v-1.29c0-1.78,2.69-4.41,4.5-4.41h88.32c1.82,0,3,2.63,3,4.41Z"/><path class="cls-9" d="M1728.87,989.73c0,1.78-1.18,4.18-3,4.18h-88.32c-1.82,0-4.5-2.4-4.5-4.18v-1.29c0-1.78,2.69-3.28,4.5-3.28h88.32a3.07,3.07,0,0,1,3,3.28Z"/><path class="cls-9" d="M1686.48,1002.6c0,1.78-2.18,3.55-4,3.55h-44.93c-1.82,0-4.5-1.78-4.5-3.55v-1.29c0-1.78,2.69-3.91,4.5-3.91h44.93a4.58,4.58,0,0,1,4,3.91Z"/><path class="cls-9" d="M1515.1,951.11c0,1.78-1.64,2.55-3.46,2.55h-88.32c-1.82,0-4.05-.78-4.05-2.55v-1.29c0-1.78,2.24-3.16,4.05-3.16h88.32a3.35,3.35,0,0,1,3.46,3.16Z"/><path class="cls-9" d="M1515.1,964a3.82,3.82,0,0,1-3.46,3.68h-88.32c-1.82,0-4.05-1.9-4.05-3.68v-1.29c0-1.78,2.24-3.78,4.05-3.78h88.32c1.82,0,3.46,2,3.46,3.78Z"/><path class="cls-9" d="M1515.1,976.85c0,1.78-1.64,4.8-3.46,4.8h-88.32c-1.82,0-4.05-3-4.05-4.8v-1.29c0-1.78,2.24-4.41,4.05-4.41h88.32c1.82,0,3.46,2.63,3.46,4.41Z"/><path class="cls-9" d="M1515.1,989.73c0,1.78-1.64,4.18-3.46,4.18h-88.32c-1.82,0-4.05-2.4-4.05-4.18v-1.29c0-1.78,2.24-3.28,4.05-3.28h88.32a3.46,3.46,0,0,1,3.46,3.28Z"/><path class="cls-9" d="M1470.87,1002.6c0,1.78-.8,3.55-2.61,3.55h-44.93c-1.82,0-4.05-1.78-4.05-3.55v-1.29c0-1.78,2.24-3.91,4.05-3.91h44.93c1.82,0,2.61,2.13,2.61,3.91Z"/><path class="cls-3" d="M1912.4,576.84c0,13.42-11.08,25.43-25.21,25.43h-263.5c-14.13,0-26.42-12-26.42-25.43V230.53c0-13.42,12.3-25.43,26.42-25.43h263.5c14.13,0,25.21,12,25.21,25.43Z"/><rect class="cls-4" x="1623.07" y="234.85" width="263.53" height="304.43"/><ellipse class="cls-5" cx="1755.44" cy="569.93" rx="21.14" ry="20.07"/><path class="cls-6" d="M1757.59,282.19c0,4.2-3.37,6.9-7.8,6.9h-85.54c-4.43,0-8-2.7-8-6.9V267a7.82,7.82,0,0,1,8-7.61h85.54a7.63,7.63,0,0,1,7.8,7.61Z"/><path class="cls-7" d="M1853.42,378.62c0,4.2-3,8.45-7.4,8.45H1664.26c-4.43,0-8-4.24-8-8.45V307.56a8.13,8.13,0,0,1,8-8H1846c4.43,0,7.4,3.77,7.4,8Z"/><path class="cls-8" d="M1750.22,439.53c0,4.2-4,7-8.45,7h-77.52c-4.43,0-8-2.82-8-7V401.46c0-4.2,3.59-7.4,8-7.4h77.52c4.43,0,8.45,3.19,8.45,7.4Z"/><path class="cls-8" d="M1853.42,439.53c0,4.2-3,7-7.4,7h-77.52c-4.43,0-7.23-2.82-7.23-7V401.46c0-4.2,2.8-7.4,7.23-7.4H1846a7.12,7.12,0,0,1,7.4,7.4Z"/><path class="cls-9" d="M1853.42,461.73c0,1.75-.83,2.32-2.63,2.32h-87.06c-1.79,0-2.45-.56-2.45-2.32v-1.27c0-1.75.66-3.42,2.45-3.42h87.06c1.79,0,2.63,1.66,2.63,3.42Z"/><path class="cls-9" d="M1853.42,474.42c0,1.75-.83,3.62-2.63,3.62h-87.06c-1.79,0-2.45-1.87-2.45-3.62v-1.27c0-1.75.66-3.86,2.45-3.86h87.06c1.79,0,2.63,2.1,2.63,3.86Z"/><path class="cls-9" d="M1853.42,487.11c0,1.75-.83,3.18-2.63,3.18h-87.06c-1.79,0-2.45-1.43-2.45-3.18v-1.27c0-1.75.66-2.55,2.45-2.55h87.06c1.79,0,2.63.8,2.63,2.55Z"/><path class="cls-9" d="M1853.42,499.8c0,1.75-.83,2.74-2.63,2.74h-87.06c-1.79,0-2.45-1-2.45-2.74v-1.27c0-1.75.66-3,2.45-3h87.06c1.79,0,2.63,1.24,2.63,3Z"/><path class="cls-9" d="M1811,512.49c0,1.75-1.22,4-3,4h-44.29c-1.79,0-2.45-2.29-2.45-4v-1.27c0-1.75.66-3.43,2.45-3.43H1808a3.24,3.24,0,0,1,3,3.43Z"/><path class="cls-9" d="M1750.22,461.73c0,1.75-1.88,2.32-3.67,2.32h-87.06c-1.79,0-3.25-.56-3.25-2.32v-1.27a3.42,3.42,0,0,1,3.25-3.42h87.06a3.82,3.82,0,0,1,3.67,3.42Z"/><path class="cls-9" d="M1750.22,474.42a4,4,0,0,1-3.67,3.62h-87.06a3.62,3.62,0,0,1-3.25-3.62v-1.27c0-1.75,1.45-3.86,3.25-3.86h87.06c1.79,0,3.67,2.1,3.67,3.86Z"/><path class="cls-9" d="M1750.22,487.11c0,1.75-1.88,3.18-3.67,3.18h-87.06a3.22,3.22,0,0,1-3.25-3.18v-1.27c0-1.75,1.45-2.55,3.25-2.55h87.06c1.79,0,3.67.8,3.67,2.55Z"/><path class="cls-9" d="M1750.22,499.8c0,1.75-1.88,2.74-3.67,2.74h-87.06c-1.79,0-3.25-1-3.25-2.74v-1.27a3.06,3.06,0,0,1,3.25-3h87.06c1.79,0,3.67,1.24,3.67,3Z"/><path class="cls-9" d="M1707.84,512.49a4.84,4.84,0,0,1-4.06,4h-44.29c-1.79,0-3.25-2.29-3.25-4v-1.27a3.44,3.44,0,0,1,3.25-3.43h44.29c1.79,0,4.06,1.68,4.06,3.43Z"/><path class="cls-10" d="M342.52,785.05c0,11.33-11.53,21.5-23.48,21.5H182c-11.95,0-22-10.16-22-21.5V504.38c0-11.34,10-21.5,22-21.5H319c12,0,23.48,10.16,23.48,21.5Z"/><path class="cls-3" d="M342.52,785.05c0,11.33-11.53,21.5-23.48,21.5H182c-11.95,0-22-10.16-22-21.5V504.38c0-11.34,10-21.5,22-21.5H319c12,0,23.48,10.16,23.48,21.5Z"/><rect class="cls-4" x="172.98" y="523.12" width="156.64" height="236.19"/><ellipse class="cls-5" cx="250.54" cy="782.43" rx="13.1" ry="12.44"/><path class="cls-5" d="M281.71,507.62a3.34,3.34,0,0,1-3.42,3.25h-65a3.34,3.34,0,0,1-3.42-3.25v-.49a3.34,3.34,0,0,1,3.42-3.25h65a3.34,3.34,0,0,1,3.42,3.25Z"/><path class="cls-6" d="M313,559a6.33,6.33,0,0,1-6.49,6.16H196.05a6.33,6.33,0,0,1-6.49-6.16V546.77a6.33,6.33,0,0,1,6.49-6.16h110.5a6.33,6.33,0,0,1,6.49,6.16Z"/><path class="cls-7" d="M313,635.93a6.33,6.33,0,0,1-6.49,6.16H196.05a6.33,6.33,0,0,1-6.49-6.16V578.27a6.33,6.33,0,0,1,6.49-6.16h110.5a6.33,6.33,0,0,1,6.49,6.16Z"/><path class="cls-8" d="M313,685a5.66,5.66,0,0,1-5.88,6H195.52a5.73,5.73,0,0,1-6-6V654.26c0-3.4,2.29-5.17,6-5.17H307.16c3.66,0,5.88,1.77,5.88,5.17Z"/><path class="cls-8" d="M313,735.79a5.66,5.66,0,0,1-5.88,6H195.52a5.73,5.73,0,0,1-6-6V705c0-3.4,2.29-5.17,6-5.17H307.16c3.67,0,5.88,1.77,5.88,5.17Z"/><ellipse class="cls-11" cx="573.36" cy="1043.02" rx="84.59" ry="28.47"/><path class="cls-12" d="M652.73,884.54c0,9.46-7.07,150.1-7.07,150.1S635,1061.5,573.14,1061.5s-71.45-26.19-71.45-26.19-8.14-142.56-8.14-150.77c0-41.36,1.7,4.72,79.58,4.72S652.73,843.18,652.73,884.54Z"/><ellipse class="cls-12" cx="573.09" cy="871.05" rx="78.91" ry="26.76"/><ellipse id="_Masque_4" data-name="&lt;Masque&gt;" class="cls-1" cx="573.1" cy="870.37" rx="71.46" ry="22.6"/><g class="cls-13"><ellipse class="cls-14" cx="571.72" cy="884.17" rx="71.41" ry="20.57"/></g><path class="cls-12" d="M645.66,1034.64s-4.25,26.86-72.51,26.86-71.45-26.19-71.45-26.19"/><path class="cls-12" d="M644.13,1012a66.66,66.66,0,0,1-10-.68l3.93-21.94c1,.15,25.86,3.7,35.14-13.46,7.58-14,10.25-41.46-2.82-52.57S645.8,916,645.69,916l-8.55-20.72c9.14-3.4,29.72-4.8,48.87,11.47,16.79,14.26,24.64,48.64,8,79.32-7.23,13.37-20.08,22-37.17,24.87A76.75,76.75,0,0,1,644.13,1012Z"/><path class="cls-5" d="M526.48,951.26a116,116,0,0,1-14.15-2.76c0-1.62,0-2.42,0-4,11.34,2.83,23,4,34.61,4.87,0,1.57,0,2.38,0,4-5.75-.48-8.62-.7-14.33-1.36.15,11.38.33,22.75.44,34.13-2.37-.39-3.55-.59-5.91-1C527,973.84,526.7,962.55,526.48,951.26Z"/><path class="cls-5" d="M581.81,971.28c-7.47.31-10.87.37-18,.09,0,5.87,0,8.86,0,14.31a184.42,184.42,0,0,0,20-.25c0,1.63-.06,2.43-.11,4-11.31.55-15.28.75-25.81-.09,0-13-.1-26.07-.12-39.1a201.85,201.85,0,0,0,25.48.25c-.05,1.55-.07,2.35-.11,4-7.79.34-11.6.36-19.3.07,0,4.78,0,7.36,0,12.5,7.17.28,10.62.23,18.06-.08C581.84,968.67,581.83,969.54,581.81,971.28Z"/><path class="cls-5" d="M605.72,975.61c-1.83,5.29-2.72,7.91-4.61,12.65-2.45.27-3.69.38-6.2.54,5.29-13.54,10-27.28,15.27-40.83,2.92-.41,4.38-.63,7.29-1.13,5.42,11.56,9.9,23.53,15.4,35.05-2.56.66-3.82,1-6.32,1.59-1.93-4-2.85-6.24-4.75-10.77C615.37,974.11,612.2,974.72,605.72,975.61ZM620.61,969c-1.76-4.22-2.65-6.41-4.46-10.64-1-2.4-1.73-4.59-2.42-6.66l-.14,0c-.69,2.35-1.44,4.83-2.32,7.38-1.79,4.87-2.66,7.39-4.39,12.32C612.4,970.6,615.13,970.11,620.61,969Z"/><path class="cls-15" d="M503.95,871.69c-3.49-1.65-4.64-3.26-12.43,1.35-9.11,5.38-7.62,20.57-2.22,42.87s3.22,64.36-1.08,76.19c0,0-2.81-1.52-2.92-1.12,5.28-20,5.26-59.25-.19-78.91-3.31-11.95-9.29-39.59,8.83-44.6,10.93-3,15.15,2,17.44,6.07a12.22,12.22,0,0,1,1.37,9c-3.44-1.47-4.46-2.57-4.46-2.57S508.15,873.67,503.95,871.69Z"/><path class="cls-5" d="M483.64,986.62l9.92,2.23s3.8,8,4.14,10c0,0-.69,8.73-1.84,22.69,0,0-14.24-5.46-21.37-7.42,0,0,1.57-16.47,2.53-20.73Z"/><path class="cls-5" d="M484.24,995.33a2.45,2.45,0,0,0,3,1.58,2.29,2.29,0,0,0,1.66-2.86,2.45,2.45,0,0,0-3-1.58A2.29,2.29,0,0,0,484.24,995.33Z"/><path class="cls-5" d="M198.92,882.68C185.64,885.57,35.25,977.2,35.25,977.2l266.46,35.23L451.9,893.85S212.19,879.8,198.92,882.68Z"/><path id="_Masque_5" data-name="&lt;Masque&gt;" class="cls-2" d="M306.26,1075.33,37.72,1036.44c-25.79-31.69,0-51.85,0-51.85l268.53,31.69L452.41,901s-15.17,32.65,0,52.81Z"/><g class="cls-16"><polyline class="cls-17" points="30.14 1001.87 303.22 1036.44 451.9 917.61 445.83 902.49 129.51 938.5 30.9 996.83"/><path class="cls-18" d="M307,1024.92s-13.65,25.21,0,50.41"/></g><path class="cls-19" d="M452.41,901,306.26,1016.27,37.72,984.59s-25.79,20.16,0,51.85l268.53,38.89L452.41,953.86"/><path id="_Masque_6" data-name="&lt;Masque&gt;" class="cls-2" d="M432.18,932.25l-268,80.66-144.63-49s-31.35-28.81-1-60.49L163.14,955.3l269-75.86S418.52,909.21,432.18,932.25Z"/><g class="cls-20"><polygon class="cls-17" points="4.25 918.33 157.44 975.23 433.5 894.33 433.5 872.24 4.25 918.33"/><path class="cls-18" d="M163.14,956.74s-14.16,19.2,1,57.61"/></g><path class="cls-21" d="M432.18,933.69l-268,80.66-144.63-49s-31.35-28.81-1-60.49l144.63,51.85,269-75.86"/><polygon class="cls-3" points="16.39 896.45 248.61 849.2 432.97 873.77 164.15 952.9 16.39 896.45"/></g></g></svg>